<?xml version="1.0" encoding="utf-8"?>
<!-- Generator: Adobe Illustrator 27.2.0, SVG Export Plug-In . SVG Version: 6.00 Build 0)  -->
<svg version="1.1" id="Layer_1" xmlns="http://www.w3.org/2000/svg" xmlns:xlink="http://www.w3.org/1999/xlink" x="0px" y="0px"
	 viewBox="430 435 200 200" style="enable-background:new 0 0 1080 1080;" xml:space="preserve">
<style type="text/css">
	.st0{fill:#2323AC;}
	.st1{fill:#CCCCCC;}
</style>
<g>
	<g>
		<path class="st1" d="M602.8,518.65h-32.79l11.67-16.96h-6.28l-11.67,16.96h-0.09v6.27h39.26c7.15,0,13.31,5.5,13.64,12.64
			c0.36,7.63-5.72,13.93-13.27,13.93h-55.11c3.11-3.38,5.05-7.84,5.17-12.76l0.02-0.05c0-0.07-0.01-0.14-0.01-0.22
			c0-0.07,0.01-0.14,0.01-0.21c0-7.12-3.84-13.35-9.54-16.77c-0.12-0.07-0.24-0.15-0.37-0.22c-0.27-0.15-0.54-0.29-0.81-0.43
			c-0.39-0.2-0.79-0.4-1.19-0.58c-0.03-0.01-0.06-0.03-0.1-0.04c-2.1-0.91-4.38-1.46-6.79-1.56c-10.46-0.4-19.2,7.47-20.21,17.59
			c-0.01,0.05,0,0.11-0.01,0.16c-0.05,0.59-0.09,1.19-0.09,1.79c0,0.01,0,0.01,0,0.02c0,0.01,0,0.02,0,0.02
			c0,10.79,8.77,19.56,19.55,19.56c0.25,0,0.48-0.03,0.73-0.04l4.17-0.01l-9.83,14.26h6.28l9.79-14.23l58.32-0.03
			c11.04,0,19.94-9.14,19.55-20.27C622.44,526.9,613.41,518.65,602.8,518.65z M533.45,551.49c-0.44,0-0.87-0.02-1.3-0.07
			c-0.01,0-0.03,0-0.04,0c-0.2-0.02-0.39-0.06-0.58-0.09c-6.19-1.08-10.92-6.45-10.99-12.94c0.05-4.18,1.97-8.02,5.02-10.53
			c0.03-0.02,0.05-0.04,0.08-0.06c0.21-0.17,0.42-0.32,0.64-0.48c0.21-0.14,0.41-0.29,0.63-0.42c0.02-0.01,0.04-0.02,0.05-0.03
			c1.53-0.93,3.26-1.56,5.09-1.79c6.34-0.82,11.97,2.87,14.12,8.3c0.01,0.02,0.02,0.04,0.02,0.06c0.11,0.29,0.22,0.59,0.31,0.89
			c0.01,0.02,0.01,0.05,0.02,0.07c0.14,0.47,0.25,0.95,0.34,1.44c0.04,0.21,0.08,0.43,0.11,0.64c0.02,0.18,0.04,0.35,0.06,0.53
			c0.03,0.34,0.05,0.69,0.06,1.04c0,0.05,0.01,0.11,0.01,0.16h-0.01v0.41c-0.02,0.61-0.07,1.23-0.17,1.85
			c-0.91,5.64-5.5,10.13-11.15,10.93c-0.28,0.04-0.56,0.07-0.84,0.09H533.45z"/>
		<rect class="st1" x="451.09" y="524.92" width="31.5" height="6.28"/>
		<rect class="st1" x="398.43" y="572.02" width="31.5" height="6.28"/>
		<path class="st1" d="M439.76,545.31l-9.33,6.28h-27.49c3.4-3.62,5.46-8.52,5.31-13.92c-0.29-10.67-9.37-19.02-20.04-19.02h-32.77l11.67-16.96
			h-6.28l-11.67,16.96h-0.09v6.27h39.26c7.15,0,13.31,5.5,13.64,12.64c0.36,7.63-5.72,13.93-13.27,13.93h-63.74v6.27l62.04,0.01
			l-0.54,0.1h43.97l9.33-6.28l8.33,6.28h34.5v-6.28h-34.5L439.76,545.31z"/>
		<polygon class="st1" points="504.35,524.93 504.35,557.77 494.53,572.03 488.25,572.03 498.07,557.77 498.07,524.93 		"/>
	</g>
	<g>
		<g>
			<path class="st0" d="M748.61,510.16c-4.18-3.16-10.32-5.81-18.1-7.7l-4.39-1.08v31.94c-6.82,1.43-14.49,2.18-22.38,2.18
				c-7.88,0-15.54-0.75-22.37-2.18v-31.94l-4.39,1.08c-15.59,3.8-24.52,10.56-24.52,18.56v36.04c0,14,26.42,21.56,51.28,21.56
				c24.87,0,51.29-7.56,51.29-21.56v-36.04C755.03,517.02,752.8,513.33,748.61,510.16z M674.27,567.55
				c-9.45-2.97-14.73-7.11-14.73-10.49v-24.67c3.64,2.57,8.61,4.78,14.73,6.5V567.55z M674.27,531.5
				c-10.12-3.17-14.73-7.4-14.73-10.47s4.6-7.3,14.73-10.46V531.5z M726.12,569.39c-6.31,1.3-13.82,2.13-22.38,2.13
				c-8.54,0-16.07-0.83-22.37-2.13v-10.84c6.91,1.35,14.54,2.04,22.37,2.04s15.45-0.69,22.38-2.03V569.39z M726.12,551.34
				c-6.82,1.42-14.49,2.17-22.38,2.17c-7.9,0-15.57-0.75-22.37-2.18v-10.78c6.91,1.34,14.55,2.03,22.37,2.03
				c7.81,0,15.45-0.69,22.38-2.03V551.34z M747.93,557.06c0,3.37-5.28,7.51-14.73,10.5v-28.68c6.12-1.72,11.1-3.93,14.73-6.5V557.06
				z M733.21,531.5v-20.94c10.14,3.16,14.73,7.39,14.73,10.46S743.34,528.32,733.21,531.5z"/>
		</g>
	</g>
</g>
</svg>
