<?xml version="1.0" encoding="utf-8"?>
<!-- Generator: Adobe Illustrator 27.8.1, SVG Export Plug-In . SVG Version: 6.00 Build 0)  -->
<svg version="1.1" id="Layer_1" xmlns="http://www.w3.org/2000/svg" xmlns:xlink="http://www.w3.org/1999/xlink" x="0px" y="0px"
	 viewBox="0 0 512 512" style="enable-background:new 0 0 512 512;" xml:space="preserve">
<style type="text/css">
	.st0{fill:#00AEEF;}
</style>
<g>
	<path class="st0" d="M21.43,353.8h42.52l0-255.12h382.68V353.8h42.52V98.68c0,0,0-42.52-42.52-42.52s-382.68,0-382.68,0
		s-42.52,0-42.52,42.52S21.43,353.8,21.43,353.8z"/>
	<path class="st0" d="M217.02,302.77v-34.02c0,0,17.01-25.51,34.02-25.51S446.62,353.8,446.62,353.8v34.02
		c0,0-178.58-110.55-195.59-110.55S217.02,302.77,217.02,302.77z"/>
	<path class="st0" d="M63.94,370.8v-34.02c0,0,17.01-25.51,34.02-25.51s195.59,110.55,195.59,110.55v34.02
		c0,0-178.58-110.55-195.59-110.55S63.94,370.8,63.94,370.8z"/>
	<path class="st0" d="M140.48,336.79v-34.02c0,0,17.01-25.51,34.02-25.51s195.59,110.55,195.59,110.55v34.02
		c0,0-178.58-110.55-195.59-110.55S140.48,336.79,140.48,336.79z"/>
</g>
</svg>
